<?xml version="1.0" encoding="iso-8859-1"?>
<!-- Uploaded to: SVG Repo, www.svgrepo.com, Generator: SVG Repo Mixer Tools -->
<svg fill="#000000" height="800px" width="800px" version="1.1" id="Layer_1" xmlns="http://www.w3.org/2000/svg" xmlns:xlink="http://www.w3.org/1999/xlink" 
	 viewBox="0 0 512.014 512.014" xml:space="preserve">
<g>
	<g>
		<path d="M509.087,351.889l-36.907-62.912l-58.475-14.613c-1.536-20.139-4.651-37.803-8.747-53.12l30.336-29.248h34.048
			c11.776,0,21.333-9.536,21.333-21.333c0-11.776-9.557-21.333-21.333-21.333h-51.285l-29.547,28.501
			c-7.531-14.635-15.381-25.493-21.739-32.725c-0.341-0.384-0.768-0.704-1.109-1.067c-2.347-16.875-10.752-34.219-25.088-51.819
			l36.587-33.899c8.661-8,9.173-21.504,1.152-30.144c-8-8.661-21.525-9.152-30.144-1.152l-38.72,35.883
			c-30.741-18.56-71.893-12.096-95.979-0.619L187.38,29.414c-7.317-9.259-20.757-10.773-29.973-3.456
			c-9.216,7.339-10.773,20.736-3.435,29.973l27.264,34.368c-14.976,17.92-23.915,35.691-26.539,53.504
			c-0.448,0.448-0.981,0.832-1.387,1.323c-6.635,7.573-14.933,18.901-22.763,34.581l-37.675-30.379H42.676
			c-11.776,0-21.333,9.557-21.333,21.333c0,11.797,9.557,21.333,21.333,21.333h35.136l37.12,29.931
			c-3.883,14.699-6.933,31.36-8.469,50.389l-66.624,16.661L2.932,351.889c-5.952,10.155-2.56,23.211,7.616,29.184
			c3.392,2.005,7.104,2.923,10.773,2.923c7.317,0,14.443-3.755,18.432-10.539l27.819-47.445l38.635-9.643
			c1.92,14.997,7.488,40.064,23.253,69.547l-44.416,19.029l-19.2,57.664c-3.733,11.157,2.325,23.232,13.504,26.965
			c2.219,0.747,4.501,1.109,6.72,1.109c8.939,0,17.28-5.653,20.245-14.613l13.141-39.445l33.579-14.4
			c7.253,9.387,15.552,18.944,25.173,28.565l10.176,10.176c19.136,19.157,44.587,29.696,71.659,29.696
			c27.093,0,52.544-10.539,71.701-29.696l10.155-10.176c9.344-9.344,17.451-18.645,24.576-27.797l25.835,12.928l13.376,40.149
			c2.987,8.96,11.307,14.613,20.245,14.613c2.24,0,4.523-0.363,6.741-1.109c11.179-3.733,17.237-15.808,13.504-26.965L427.21,405.67
			l-37.163-18.581c15.552-28.736,21.419-53.376,23.595-68.779l30.805,7.701l27.819,47.445c3.989,6.784,11.115,10.539,18.432,10.539
			c3.669,0,7.381-0.939,10.773-2.923C511.626,375.099,515.039,362.043,509.087,351.889z M323.743,152.081
			c-0.619,5.077-3.179,20.181-12.203,34.133c-0.128,0.192-0.256,0.384-0.384,0.576c-2.133,3.243-4.672,6.379-7.595,9.344
			c-0.32,0.32-0.683,0.64-1.003,0.96c-2.944,2.837-6.272,5.44-10.048,7.723c-0.469,0.277-0.981,0.512-1.451,0.768
			c-3.925,2.197-8.277,4.075-13.205,5.376c-0.427,0.128-0.896,0.171-1.323,0.277c-5.248,1.28-10.944,2.091-17.387,2.091
			c-6.037,0-11.349-0.747-16.277-1.856c-0.683-0.149-1.429-0.235-2.112-0.405c-4.203-1.088-7.893-2.667-11.349-4.416
			c-1.109-0.576-2.261-1.088-3.285-1.707c-2.859-1.707-5.376-3.648-7.701-5.696c-1.131-1.003-2.24-2.005-3.264-3.051
			c-1.963-2.048-3.755-4.203-5.333-6.421c-0.832-1.131-1.579-2.261-2.283-3.413c-1.536-2.475-2.965-4.992-4.096-7.509
			c-0.299-0.619-0.555-1.237-0.832-1.856c-3.989-9.493-5.547-18.432-6.101-23.68c0.213-13.675,11.328-31.552,31.403-50.432
			c3.968-3.413,20.16-9.131,36.352-9.131c10.325,0,20.672,2.325,27.84,9.067c20.352,19.136,31.573,37.205,31.659,49.024
			L323.743,152.081z"/>
	</g>
</g>
</svg>