<?xml version="1.0" encoding="UTF-8"?>
<svg xmlns="http://www.w3.org/2000/svg" xmlns:xlink="http://www.w3.org/1999/xlink" width="3000" height="3000" viewBox="0 0 3000 3000">

<path fill-rule="nonzero" fill="rgb(70.117188%, 70.117188%, 70.117188%)" fill-opacity="1" d="M 2322.101562 937.449219 C 2322.070312 982.171875 2322.03125 1026.878906 2322 1071.589844 C 2321.898438 1240.039062 2321.808594 1408.480469 2321.691406 1576.921875 C 2321.648438 1591.480469 2321.75 1606.050781 2320.53125 1620.558594 C 2316.851562 1666.121094 2304.03125 1710.859375 2283.441406 1751.640625 C 2266.148438 1785.929688 2243.308594 1817.449219 2215.921875 1844.378906 C 2165.578125 1893.960938 2100.28125 1928.339844 2030.691406 1940.878906 C 2007.230469 1945.148438 1983.371094 1946.96875 1959.539062 1947.191406 C 1946.429688 1947.289062 1933.308594 1947.160156 1920.191406 1947.199219 C 1690.800781 1947.078125 1461.410156 1947.078125 1232.019531 1947.050781 C 1179.941406 1999.078125 1127.859375 2051.097656 1075.78125 2103.121094 L 1833.851562 2103.121094 L 2094.890625 2364.421875 C 2112 2381.554688 2137.75 2386.683594 2160.128906 2377.421875 C 2182.488281 2368.164062 2197.089844 2346.335938 2197.089844 2322.121094 L 2197.089844 2103.121094 L 2280.539062 2103.121094 C 2389.929688 2103.121094 2477.988281 2015.054688 2477.988281 1905.671875 L 2477.988281 1130.5 C 2477.988281 1035.378906 2411.378906 956.460938 2322.101562 937.449219 Z M 2322.101562 937.449219 "/>
<path fill-rule="nonzero" fill="rgb(30.200195%, 30.200195%, 30.200195%)" fill-opacity="1" d="M 719.464844 618.03125 C 610.074219 618.03125 522.011719 706.109375 522.011719 815.5 L 522.011719 1590.660156 C 522.011719 1700.058594 610.074219 1788.121094 719.464844 1788.121094 L 802.914062 1788.121094 L 802.914062 2007.117188 C 802.914062 2031.332031 817.503906 2053.160156 839.875 2062.417969 C 862.246094 2071.679688 887.996094 2066.550781 905.109375 2049.417969 L 1166.148438 1788.121094 L 1965.53125 1788.121094 C 2074.910156 1788.121094 2162.988281 1700.058594 2162.988281 1590.660156 L 2162.988281 815.5 C 2162.988281 706.109375 2074.910156 618.03125 1965.53125 618.03125 L 719.464844 618.03125 "/>
<path fill-rule="nonzero" fill="rgb(100%, 100%, 100%)" fill-opacity="1" d="M 752.386719 980.5 L 1062.039062 980.5 L 1062.039062 1057.261719 L 843.058594 1057.261719 L 843.058594 1157.699219 L 1034.78125 1157.699219 L 1034.78125 1233.570312 L 843.058594 1233.570312 L 843.058594 1416.679688 L 752.386719 1416.679688 L 752.386719 980.5 "/>
<path fill-rule="nonzero" fill="rgb(100%, 100%, 100%)" fill-opacity="1" d="M 1209.308594 1251.640625 L 1320.128906 1251.640625 L 1265.609375 1079.78125 Z M 1214.941406 979.921875 L 1318.050781 979.921875 L 1472.730469 1416.679688 L 1373.761719 1416.679688 L 1345.609375 1326.910156 L 1184.710938 1326.910156 L 1154.488281 1416.679688 L 1059.070312 1416.679688 L 1214.941406 979.921875 "/>
<path fill-rule="nonzero" fill="rgb(100%, 100%, 100%)" fill-opacity="1" d="M 1720.449219 1351.5 C 1730.921875 1351.5 1740.988281 1350.210938 1750.671875 1347.648438 C 1756.011719 1346.261719 1762.820312 1343.789062 1771.121094 1340.230469 L 1726.96875 1298.160156 L 1774.078125 1248.96875 L 1818.230469 1291.039062 C 1825.148438 1276.828125 1829.988281 1264.371094 1832.75 1253.710938 C 1837.101562 1237.699219 1839.269531 1219.039062 1839.269531 1197.699219 C 1839.269531 1148.710938 1829.199219 1110.890625 1809.058594 1084.21875 C 1789.101562 1057.359375 1759.859375 1043.921875 1721.339844 1043.921875 C 1685.191406 1043.921875 1656.351562 1056.75 1634.808594 1082.441406 C 1613.28125 1108.121094 1602.519531 1146.539062 1602.519531 1197.699219 C 1602.519531 1257.570312 1617.929688 1300.429688 1648.738281 1326.308594 C 1668.691406 1343.089844 1692.601562 1351.5 1720.449219 1351.5 Z M 1930.539062 1191.179688 C 1930.539062 1230.109375 1925.800781 1262.691406 1916.308594 1288.980469 C 1908.609375 1314.058594 1897.25 1334.910156 1882.238281 1351.5 L 1932.609375 1398.609375 L 1884.910156 1448.390625 L 1832.160156 1398.609375 C 1816.160156 1408.289062 1802.328125 1415.109375 1790.679688 1419.058594 C 1771.121094 1425.570312 1747.710938 1428.839844 1720.449219 1428.839844 C 1663.558594 1428.839844 1616.539062 1411.839844 1579.398438 1377.859375 C 1534.359375 1336.980469 1511.839844 1276.929688 1511.839844 1197.699219 C 1511.839844 1117.890625 1534.960938 1057.539062 1581.179688 1016.660156 C 1618.910156 983.269531 1665.828125 966.589844 1721.929688 966.589844 C 1778.429688 966.589844 1825.839844 984.269531 1864.160156 1019.621094 C 1908.410156 1060.519531 1930.539062 1117.699219 1930.539062 1191.179688 "/>
</svg>
